<?xml version="1.0" encoding="UTF-8"?>
<svg width="36" height="36" viewBox="0 0 36 36" fill="none" xmlns="http://www.w3.org/2000/svg">
    <path d="M18 3C9.72 3 3 9.72 3 18C3 26.28 9.72 33 18 33C26.28 33 33 26.28 33 18C33 9.72 26.28 3 18 3Z" fill="#1E88E5"/>
    <path d="M18 6C11.37 6 6 11.37 6 18C6 24.63 11.37 30 18 30C24.63 30 30 24.63 30 18C30 11.37 24.63 6 18 6Z" fill="#42A5F5"/>
    <path d="M18 9C12.48 9 8 13.48 8 19C8 24.52 12.48 29 18 29C23.52 29 28 24.52 28 19C28 13.48 23.52 9 18 9Z" fill="#64B5F6"/>
    <path d="M18 12C13.58 12 10 15.58 10 20C10 24.42 13.58 28 18 28C22.42 28 26 24.42 26 20C26 15.58 22.42 12 18 12Z" fill="#90CAF9"/>
    <path d="M18 15C14.69 15 12 17.69 12 21C12 24.31 14.69 27 18 27C21.31 27 24 24.31 24 21C24 17.69 21.31 15 18 15Z" fill="#BBDEFB"/>
    <path d="M18 18C15.79 18 14 19.79 14 22C14 24.21 15.79 26 18 26C20.21 26 22 24.21 22 22C22 19.79 20.21 18 18 18Z" fill="#E3F2FD"/>
</svg> 